<svg width="28" height="28" xmlns="http://www.w3.org/2000/svg"><g fill="none" fill-rule="evenodd"><rect fill="#EDEEFF" width="28" height="28" rx="8"/><g fill-rule="nonzero"><path d="M7.467 4.167a.5.5 0 0 1 .492.41l.008.09-.001 2.408h2.3a.5.5 0 0 1 .09.993l-.09.008-2.3-.001v2.41a.5.5 0 0 1-.991.09l-.008-.09-.001-2.41h-2.3a.5.5 0 0 1-.09-.991l.09-.008 2.3-.001V4.667a.5.5 0 0 1 .5-.5ZM9.68 18.852a.5.5 0 0 1 .07.637l-.056.07L8.16 21.15l1.534 1.593a.5.5 0 0 1-.653.753l-.068-.06-1.507-1.565-1.506 1.566a.5.5 0 0 1-.777-.623l.057-.07 1.532-1.594-1.532-1.592a.5.5 0 0 1 .652-.753l.068.06 1.506 1.564 1.507-1.565a.5.5 0 0 1 .707-.013ZM23.333 7.076a.5.5 0 0 1 .09.992l-.09.008h-5.6a.5.5 0 0 1-.09-.992l.09-.008h5.6ZM22.4 18.712a.5.5 0 0 1 .09.992l-.09.008h-3.733a.5.5 0 0 1-.09-.992l.09-.008H22.4Zm0 3.879a.5.5 0 0 1 .09.992l-.09.008h-3.733a.5.5 0 0 1-.09-.992l.09-.008H22.4Z" fill="#7B80E7"/><path fill="#FFF" d="m14.5 0-.001 13.499L28 13.5v1l-13.501-.001L14.5 28h-1l-.001-13.501L0 14.5v-1l13.499-.001L13.5 0z"/></g></g></svg>