<svg width="32" height="32" xmlns="http://www.w3.org/2000/svg"><path d="M16 .5A5.5 5.5 0 0 1 21.5 6v10a5.5 5.5 0 0 1-5.5 5.5H6A5.5 5.5 0 0 1 .5 16V6A5.5 5.5 0 0 1 6 .5Zm-5.501 10.999L1.5 11.5V16a4.5 4.5 0 0 0 4.288 4.495L6 20.5h4.5l-.001-9.001Zm1 0L11.5 20.5H16a4.5 4.5 0 0 0 4.495-4.288L20.5 16v-4.5l-9.001-.001ZM17 16.994a.5.5 0 0 1 .09.991l-.09.009h-2.667a.5.5 0 0 1-.09-.992l.09-.008H17Zm-8.987-2.631a.5.5 0 0 1 .07.636l-.056.07-1 1.039 1 1.039a.5.5 0 0 1-.652.752l-.069-.059-.973-1.011-.973 1.011a.5.5 0 0 1-.777-.623l.057-.07.999-1.039-1-1.038a.5.5 0 0 1 .653-.753l.068.06.973 1.01.973-1.01a.5.5 0 0 1 .707-.014Zm8.987-.14a.5.5 0 0 1 .09.992l-.09.008h-2.667a.5.5 0 0 1-.09-.992l.09-.008H17ZM10.5 1.5H6A4.5 4.5 0 0 0 1.5 6v4.5l8.999-.001L10.5 1.5Zm5.5 0h-4.5l-.001 8.999 9.001.001V6a4.5 4.5 0 0 0-4.288-4.495L16 1.5ZM6.333 3.833a.5.5 0 0 1 .492.41l.008.09v1.578h1.5a.5.5 0 0 1 .09.992l-.09.008h-1.5v1.578a.5.5 0 0 1-.992.09l-.008-.09V6.911h-1.5a.5.5 0 0 1-.09-.992l.09-.008h1.5V4.333a.5.5 0 0 1 .5-.5Zm11.334 2.078a.5.5 0 0 1 .09.992l-.09.008h-4a.5.5 0 0 1-.09-.992l.09-.008h4Z" fill="#FFF" fill-rule="nonzero"/></svg>