<svg width="16" height="14" xmlns="http://www.w3.org/2000/svg"><path d="M8.895.76a6.569 6.569 0 0 1 4.68 5.413l1.012-1.482a.5.5 0 0 1 .87.485l-.044.08-1.905 2.785a.524.524 0 0 1-.038.049l.038-.049a.504.504 0 0 1-.134.134l-.01.006a.47.47 0 0 1-.22.076.458.458 0 0 1-.106-.001l-.017-.002a.498.498 0 0 1-.053-.011l.07.013a.502.502 0 0 1-.202-.07l-.02-.012a.5.5 0 0 1-.042-.031l-.017-.016-2.523-2.32a.5.5 0 0 1 .605-.79l.072.054 1.708 1.57A5.568 5.568 0 0 0 2.054 4.647a5.567 5.567 0 0 0 8.95 6.356.5.5 0 0 1 .707.707A6.567 6.567 0 1 1 8.895.761Z" fill="#FFF" fill-rule="nonzero"/></svg>